<svg version="1.1" id="Layer_1" xmlns="http://www.w3.org/2000/svg" xmlns:xlink="http://www.w3.org/1999/xlink" x="0px" y="0px"
	 width="100%" viewBox="0 0 246 207" enable-background="new 0 0 246 207" xml:space="preserve">
<path fill="#FEFDFE" opacity="1.000000" stroke="none" 
	d="
M150.000000,208.000000 
	C100.000000,208.000000 50.500008,208.000000 1.000007,208.000000 
	C1.000004,139.000000 1.000004,70.000015 1.000002,1.000016 
	C82.999992,1.000011 164.999985,1.000011 246.999969,1.000005 
	C246.999985,69.999985 246.999985,138.999969 247.000000,207.999969 
	C214.833328,208.000000 182.666672,208.000000 150.000000,208.000000 
M137.096771,179.948273 
	C137.096771,179.948273 137.087265,180.203156 137.087265,180.203156 
	C137.087265,180.203156 136.958115,180.012390 136.714035,179.584778 
	C135.997177,179.599960 135.042648,179.318497 134.598602,179.674225 
	C126.026741,186.541809 118.538223,181.851715 110.998207,177.560486 
	C109.416237,176.660126 107.822235,175.780930 105.841576,174.341095 
	C103.377991,171.948608 101.171555,169.176804 98.372437,167.279266 
	C95.974861,165.653915 92.898476,165.029892 89.803757,163.321304 
	C82.857170,159.745239 75.910576,156.169159 68.963989,152.593094 
	C68.478333,153.355865 67.992668,154.118637 67.507011,154.881409 
	C71.567856,157.958954 75.628700,161.036499 80.175041,164.656219 
	C88.445190,168.448212 96.715340,172.240204 105.442657,176.522781 
	C110.962418,179.797379 116.418015,183.189667 122.049187,186.259918 
	C123.378708,186.984818 125.653671,187.292526 126.880417,186.639694 
	C130.418335,184.756927 133.643143,182.285828 137.096771,179.948273 
M205.380096,54.067547 
	C205.380096,54.067547 205.821411,54.007782 205.742691,54.714249 
	C205.724762,55.437725 205.706818,56.161201 205.688889,56.884682 
	C207.143982,56.422882 209.310196,56.405125 209.925873,55.419167 
	C212.100372,51.936829 214.382065,48.289051 215.398346,44.385162 
	C216.304489,40.904381 215.588745,37.001373 215.588745,33.284698 
	C214.873276,33.162148 214.157791,33.039597 213.442322,32.917046 
	C211.231827,39.248142 209.021317,45.579239 206.283188,51.926186 
	C205.931763,51.913216 205.580353,51.900246 205.060364,51.150101 
	C204.141251,49.368855 202.913483,47.678352 202.358322,45.790100 
	C200.331451,38.896164 196.176758,34.028477 189.209488,31.481575 
	C193.063919,39.118698 197.567352,46.285545 202.222885,53.352184 
	C202.590637,53.910374 204.015106,53.772392 205.380096,54.067547 
M41.002743,51.126755 
	C38.689705,45.227486 36.376671,39.328217 33.566597,32.161278 
	C30.022085,42.661968 33.436249,53.107918 41.531113,59.499779 
	C41.817570,58.654114 42.072369,57.901909 43.015232,57.102360 
	C43.853634,56.833614 44.692039,56.564869 44.571018,56.603661 
	C44.011581,54.096107 43.225403,52.135094 43.212582,50.169033 
	C43.190205,46.738476 43.643921,43.304813 44.026142,39.120918 
	C46.235817,32.531269 48.487659,25.955368 50.641911,19.347651 
	C52.382389,14.009089 53.734432,8.629594 51.114536,3.026240 
	C44.224026,7.528668 40.754444,15.283643 41.442562,24.288811 
	C41.845074,29.556360 42.319969,34.818378 42.229542,40.670033 
	C41.873524,44.403675 41.517509,48.137318 41.002743,51.126755 
M57.254883,119.675591 
	C60.022694,121.984482 62.790501,124.293381 65.170509,126.278770 
	C65.053146,123.751457 64.893875,120.321487 64.872116,116.088921 
	C65.186455,114.287933 65.315926,112.430267 65.847733,110.695961 
	C67.941528,103.867790 70.366035,97.134903 72.268990,90.256317 
	C73.727394,84.984673 73.848694,79.639366 70.433128,73.926407 
	C68.863045,75.839561 67.690804,77.154945 66.643013,78.562958 
	C59.682899,87.915924 57.027344,98.448502 57.558479,109.753998 
	C57.390388,109.162460 57.222298,108.570923 57.054207,107.979385 
	C56.749870,108.259911 56.445538,108.540428 56.141201,108.820946 
	C56.065441,109.591576 55.989681,110.362198 55.214622,111.219261 
	C50.733608,106.790543 46.313702,102.296379 41.710361,97.998688 
	C40.958736,97.296959 39.397392,97.462532 38.210300,97.227242 
	C38.181229,98.359283 37.809261,99.619308 38.176556,100.603416 
	C41.546829,109.633446 49.179844,114.422333 57.254883,119.675591 
M202.635376,88.164566 
	C204.015396,86.735725 205.712311,85.499321 206.718018,83.843170 
	C210.205383,78.100388 213.570480,72.274429 216.723480,66.342651 
	C217.747238,64.416603 217.512085,62.101032 214.410065,62.499458 
	C210.430939,63.010540 203.370331,71.799820 202.629761,76.493370 
	C201.498291,79.250450 200.366806,82.007530 199.259384,83.896927 
	C198.503784,70.260704 191.424576,55.842560 183.842712,53.227154 
	C183.704178,54.696781 183.165024,56.179577 183.515228,57.409058 
	C185.378372,63.950211 187.290924,70.488220 189.524307,76.909782 
	C191.566437,82.781479 194.039062,88.503448 196.385803,94.453232 
	C196.664642,94.208748 197.342163,93.614708 198.622864,92.801239 
	C199.771103,91.398842 200.919357,89.996445 202.635376,88.164566 
M191.674072,118.685059 
	C196.143814,115.276665 200.867355,112.147926 205.014587,108.384163 
	C209.495972,104.317162 211.539581,98.847504 212.254288,92.471458 
	C204.582352,99.158859 197.329895,105.480606 189.943878,111.016846 
	C192.170166,96.616997 188.221283,84.292915 177.601028,73.262268 
	C174.188446,80.525749 174.941147,86.918610 177.310638,93.276108 
	C180.781738,102.589233 184.874176,111.738686 184.081833,122.065399 
	C184.065567,122.277603 185.265900,122.583160 186.574234,122.735619 
	C188.053741,121.424797 189.533249,120.113976 191.674072,118.685059 
M44.768932,70.579613 
	C44.768932,69.701302 44.768932,68.822983 44.768932,67.944672 
	C44.536381,67.951187 44.303833,67.957710 44.071281,67.964233 
	C44.191235,69.069550 44.311188,70.174866 43.667717,71.270485 
	C39.520306,67.873573 35.372898,64.476654 31.225487,61.079742 
	C31.843950,72.502556 37.199474,80.939384 45.215771,88.686241 
	C47.117218,90.130089 49.018665,91.573936 50.907131,93.483887 
	C50.907131,93.483887 51.083298,93.915604 50.941513,94.534348 
	C51.957710,97.588745 52.973911,100.643143 53.990108,103.697540 
	C54.334618,103.595116 54.679131,103.492683 55.023640,103.390259 
	C54.378807,100.266609 53.733978,97.142952 53.249821,93.225220 
	C53.740326,91.393578 54.138573,89.531212 54.736717,87.735420 
	C57.982426,77.990952 61.395920,68.299965 64.460617,58.499554 
	C65.112396,56.415272 64.555573,53.953049 64.555573,50.624573 
	C54.565689,61.630424 49.034653,73.154373 48.416401,86.541466 
	C47.204391,82.369972 45.992382,78.198486 44.785416,73.329636 
	C44.675991,72.642723 44.566566,71.955803 44.768932,70.579613 
M156.433487,166.698990 
	C148.577408,166.312302 145.710495,173.806488 140.304871,177.333145 
	C153.519699,168.883423 170.944244,167.685349 181.962357,152.418777 
	C178.762939,153.464844 176.919281,154.060852 175.080109,154.670471 
	C171.717148,155.785156 168.356857,156.907913 164.594559,157.767761 
	C163.002716,159.155334 161.410873,160.542892 159.270508,162.178482 
	C158.500748,163.084457 157.730988,163.990433 156.486237,165.108490 
	C156.629349,165.478348 156.772461,165.848206 156.433487,166.698990 
M182.963821,132.431091 
	C183.087860,131.151703 183.211914,129.872299 183.335953,128.592911 
	C181.884995,130.204758 181.446289,132.093628 180.517868,133.699356 
	C178.887299,136.519562 176.956955,139.166458 175.065948,141.191452 
	C175.114700,140.494568 175.163467,139.797668 175.848938,138.783707 
	C182.700775,128.754196 179.749344,108.243828 164.664276,96.610657 
	C164.664276,101.566612 163.980408,105.927773 164.804977,109.982140 
	C166.585648,118.737686 169.140366,127.335800 171.322266,136.901077 
	C171.068085,140.711060 170.813889,144.521042 170.559174,148.339005 
	C172.046021,147.547928 173.377167,146.390625 174.870468,146.116440 
	C186.530533,143.975388 195.116943,137.389603 201.519897,127.755501 
	C202.550873,126.204239 202.521500,123.948265 202.982300,122.018059 
	C202.432434,121.776299 201.882553,121.534531 201.332672,121.292770 
	C196.764587,124.573128 192.237488,127.913193 187.602585,131.096252 
	C186.270035,132.011398 184.626434,132.473602 182.963821,132.431091 
M77.912872,144.358719 
	C77.690598,143.541031 77.468315,142.723343 77.365150,141.115295 
	C79.290756,133.232346 81.270630,125.362144 83.125656,117.462616 
	C84.758041,110.511215 84.243828,103.595497 82.580879,96.503693 
	C78.954773,100.931229 75.968872,105.454788 73.414330,110.210075 
	C69.494514,117.506844 68.374062,125.269257 70.562485,133.373138 
	C71.328049,136.208069 72.139282,139.030655 72.183647,141.987976 
	C65.148003,132.266876 54.630337,127.270340 44.411530,120.808449 
	C46.949905,133.527298 62.947117,146.464539 74.995308,146.818939 
	C75.687271,147.719131 76.379234,148.619308 77.071198,149.519501 
	C77.450005,149.398804 77.828819,149.278122 78.207634,149.157425 
	C78.098045,147.773254 77.988457,146.389069 77.912872,144.358719 
M163.163696,77.560753 
	C167.107651,63.797123 166.779373,49.681919 167.183823,35.149899 
	C152.164749,33.598969 138.458008,29.333122 125.604706,22.355124 
	C124.743179,21.887403 123.178947,21.922684 122.301712,22.394154 
	C109.432556,29.310686 95.718452,33.556732 80.496101,35.274563 
	C80.986923,45.288738 80.865463,54.955708 82.041122,64.462257 
	C85.242584,90.349739 96.931915,111.397820 118.776955,126.395454 
	C122.558762,128.991852 125.560120,128.709900 129.187180,126.221001 
	C146.387222,114.418297 157.479889,98.377708 163.163696,77.560753 
M160.947311,132.565338 
	C158.971252,126.568871 156.995209,120.572411 155.019165,114.575951 
	C148.244049,129.774384 149.782654,144.785217 152.497513,159.848038 
	C157.672867,158.549591 162.015121,145.005463 160.947311,132.565338 
M90.243828,151.140625 
	C91.679268,154.186432 93.114708,157.232254 94.669479,160.531265 
	C100.597115,144.802887 100.271858,130.149155 94.852097,115.165993 
	C87.667580,125.397774 86.101723,137.505798 90.243828,151.140625 
M206.129196,25.400721 
	C206.917130,13.953012 203.251083,5.400106 196.017212,2.431835 
	C192.475815,14.656423 200.875977,23.998354 203.403549,35.934811 
	C204.525040,31.855265 205.303833,29.022289 206.129196,25.400721 
M56.645473,37.177006 
	C57.118065,35.641064 57.590656,34.105118 58.295746,31.813543 
	C48.345436,38.106655 44.134598,45.281185 46.315052,53.500275 
	C50.014248,47.686317 53.153011,42.753178 56.645473,37.177006 
M55.177433,105.743950 
	C55.274399,106.009438 55.371365,106.274918 55.468330,106.540405 
	C55.488110,106.177597 55.507889,105.814789 55.177433,105.743950 
M78.521225,151.406143 
	C78.521225,151.406143 78.580048,151.374847 78.521225,151.406143 
z"/>
<path fill="#79498A" opacity="1.000000" stroke="none" 
	d="
M163.081238,77.961021 
	C157.479889,98.377708 146.387222,114.418297 129.187180,126.221001 
	C125.560120,128.709900 122.558762,128.991852 118.776955,126.395454 
	C96.931915,111.397820 85.242584,90.349739 82.041122,64.462257 
	C80.865463,54.955708 80.986923,45.288738 80.496101,35.274563 
	C95.718452,33.556732 109.432556,29.310686 122.301712,22.394154 
	C123.178947,21.922684 124.743179,21.887403 125.604706,22.355124 
	C138.458008,29.333122 152.164749,33.598969 167.183823,35.149899 
	C166.779373,49.681919 167.107651,63.797123 163.081238,77.961021 
M121.729424,54.992832 
	C118.344994,54.700310 116.778023,56.177784 116.946274,59.640846 
	C117.079498,62.382927 116.973083,65.136650 116.973083,67.941360 
	C114.965637,68.053802 113.809570,68.160645 112.652237,68.176712 
	C103.593895,68.302505 103.593872,68.297127 103.868553,77.268303 
	C103.873650,77.434776 103.884407,77.602592 103.870331,77.767899 
	C103.594025,81.011856 105.138069,82.303329 108.312202,82.152519 
	C111.069229,82.021515 113.837410,82.125259 115.155457,82.125259 
	C119.781288,86.618347 112.191101,95.056267 122.128014,95.746819 
	C124.541046,95.914505 128.707001,95.952469 129.147720,94.865959 
	C130.684967,91.076172 130.942795,86.767410 131.627579,82.983490 
	C135.145416,79.376549 143.839645,87.114426 144.050568,76.857674 
	C144.100739,74.418350 144.313278,70.267212 143.250717,69.831619 
	C139.602951,68.336182 135.422348,68.140442 130.874054,67.350098 
	C130.874054,64.389778 131.295166,61.192860 130.779709,58.154846 
	C129.910309,53.030685 125.524925,55.659687 121.729424,54.992832 
z"/>
<path fill="#7D4E8E" opacity="1.000000" stroke="none" 
	d="
M72.929657,141.858887 
	C72.139282,139.030655 71.328049,136.208069 70.562485,133.373138 
	C68.374062,125.269257 69.494514,117.506844 73.414330,110.210075 
	C75.968872,105.454788 78.954773,100.931229 82.580879,96.503693 
	C84.243828,103.595497 84.758041,110.511215 83.125656,117.462616 
	C81.270630,125.362144 79.290756,133.232346 76.973747,141.646759 
	C75.364784,142.071793 74.147217,141.965347 72.929657,141.858887 
z"/>
<path fill="#7C4E8E" opacity="1.000000" stroke="none" 
	d="
M185.898651,122.845161 
	C185.265900,122.583160 184.065567,122.277603 184.081833,122.065399 
	C184.874176,111.738686 180.781738,102.589233 177.310638,93.276108 
	C174.941147,86.918610 174.188446,80.525749 177.601028,73.262268 
	C188.221283,84.292915 192.170166,96.616997 189.992401,111.741852 
	C190.037445,112.910431 190.033966,113.353989 189.717331,113.827377 
	C188.685165,113.533386 187.966156,113.209587 186.639511,112.612152 
	C186.382965,116.155655 186.140793,119.500412 185.898651,122.845161 
z"/>
<path fill="#7B4C8C" opacity="1.000000" stroke="none" 
	d="
M171.378418,135.998322 
	C169.140366,127.335800 166.585648,118.737686 164.804977,109.982140 
	C163.980408,105.927773 164.664276,101.566612 164.664276,96.610657 
	C179.749344,108.243828 182.700775,128.754196 175.232895,138.807068 
	C173.537369,137.886398 172.457901,136.942352 171.378418,135.998322 
z"/>
<path fill="#7D4E8E" opacity="1.000000" stroke="none" 
	d="
M58.111458,109.990829 
	C57.027344,98.448502 59.682899,87.915924 66.643013,78.562958 
	C67.690804,77.154945 68.863045,75.839561 70.433128,73.926407 
	C73.848694,79.639366 73.727394,84.984673 72.268990,90.256317 
	C70.366035,97.134903 67.941528,103.867790 65.847733,110.695961 
	C65.315926,112.430267 65.186455,114.287933 64.450272,116.492264 
	C63.115067,115.677933 62.201702,114.460274 61.389420,113.377365 
	C61.136395,113.923721 60.684296,114.899948 60.188995,115.577957 
	C59.935135,114.519897 59.724468,113.760048 59.402359,112.648605 
	C58.875626,111.511375 58.460335,110.725754 58.045822,109.973541 
	C58.046600,110.006966 58.111458,109.990829 58.111458,109.990829 
z"/>
<path fill="#7E508F" opacity="1.000000" stroke="none" 
	d="
M160.990601,132.977264 
	C162.015121,145.005463 157.672867,158.549591 152.497513,159.848038 
	C149.782654,144.785217 148.244049,129.774384 155.019165,114.575951 
	C156.995209,120.572411 158.971252,126.568871 160.990601,132.977264 
z"/>
<path fill="#7D4F8E" opacity="1.000000" stroke="none" 
	d="
M90.134766,150.753906 
	C86.101723,137.505798 87.667580,125.397774 94.852097,115.165993 
	C100.271858,130.149155 100.597115,144.802887 94.669479,160.531265 
	C93.114708,157.232254 91.679268,154.186432 90.134766,150.753906 
z"/>
<path fill="#7D4F8F" opacity="1.000000" stroke="none" 
	d="
M48.994228,86.998016 
	C49.034653,73.154373 54.565689,61.630424 64.555573,50.624573 
	C64.555573,53.953049 65.112396,56.415272 64.460617,58.499554 
	C61.395920,68.299965 57.982426,77.990952 54.736717,87.735420 
	C54.138573,89.531212 53.740326,91.393578 52.834644,93.615646 
	C51.974079,93.975914 51.528687,93.945755 51.083298,93.915604 
	C51.083298,93.915604 50.907131,93.483887 51.233162,93.045135 
	C51.689808,90.802521 51.820423,88.998657 51.951042,87.194794 
	C51.790119,87.189499 51.629192,87.184212 51.468269,87.178917 
	C51.201210,87.890488 50.934151,88.602066 50.640362,89.384850 
	C50.055573,88.536926 49.524902,87.767471 48.994228,86.998016 
z"/>
<path fill="#7C4E8E" opacity="1.000000" stroke="none" 
	d="
M198.019669,93.020660 
	C197.342163,93.614708 196.664642,94.208748 196.385803,94.453232 
	C194.039062,88.503448 191.566437,82.781479 189.524307,76.909782 
	C187.290924,70.488220 185.378372,63.950211 183.515228,57.409058 
	C183.165024,56.179577 183.704178,54.696781 183.842712,53.227154 
	C191.424576,55.842560 198.503784,70.260704 199.140076,84.686401 
	C198.620850,87.982018 195.298187,90.100357 198.019669,93.020660 
z"/>
<path fill="#805290" opacity="1.000000" stroke="none" 
	d="
M72.556656,141.923431 
	C74.147217,141.965347 75.364784,142.071793 76.914185,142.041946 
	C77.468315,142.723343 77.690598,143.541031 77.551460,144.683502 
	C76.430130,145.396454 75.670204,145.784607 74.910278,146.172745 
	C62.947117,146.464539 46.949905,133.527298 44.411530,120.808449 
	C54.630337,127.270340 65.148003,132.266876 72.556656,141.923431 
z"/>
<path fill="#7B4D8D" opacity="1.000000" stroke="none" 
	d="
M171.350342,136.449707 
	C172.457901,136.942352 173.537369,137.886398 174.914551,138.965607 
	C175.163467,139.797668 175.114700,140.494568 175.043579,141.903900 
	C175.852936,143.068283 176.898895,144.096481 177.482056,143.879700 
	C181.626465,142.339050 179.213043,137.325821 182.336426,134.837234 
	C182.813950,134.145767 182.954742,133.584808 183.072479,133.061371 
	C183.049454,133.098907 183.125443,133.143478 183.125443,133.143478 
	C184.626434,132.473602 186.270035,132.011398 187.602585,131.096252 
	C192.237488,127.913193 196.764587,124.573128 201.332672,121.292770 
	C201.882553,121.534531 202.432434,121.776299 202.982300,122.018059 
	C202.521500,123.948265 202.550873,126.204239 201.519897,127.755501 
	C195.116943,137.389603 186.530533,143.975388 174.870468,146.116440 
	C173.377167,146.390625 172.046021,147.547928 170.559174,148.339005 
	C170.813889,144.521042 171.068085,140.711060 171.350342,136.449707 
z"/>
<path fill="#7E518F" opacity="1.000000" stroke="none" 
	d="
M42.762302,40.082882 
	C42.319969,34.818378 41.845074,29.556360 41.442562,24.288811 
	C40.754444,15.283643 44.224026,7.528668 51.114536,3.026240 
	C53.734432,8.629594 52.382389,14.009089 50.641911,19.347651 
	C48.487659,25.955368 46.235817,32.531269 43.676468,39.540009 
	C43.138630,40.000359 42.950466,40.041618 42.762302,40.082882 
z"/>
<path fill="#7E508F" opacity="1.000000" stroke="none" 
	d="
M206.105927,25.795017 
	C205.303833,29.022289 204.525040,31.855265 203.403549,35.934811 
	C200.875977,23.998354 192.475815,14.656423 196.017212,2.431835 
	C203.251083,5.400106 206.917130,13.953012 206.105927,25.795017 
z"/>
<path fill="#825693" opacity="1.000000" stroke="none" 
	d="
M164.995453,158.027298 
	C168.356857,156.907913 171.717148,155.785156 175.080109,154.670471 
	C176.919281,154.060852 178.762939,153.464844 181.962357,152.418777 
	C170.944244,167.685349 153.519699,168.883423 140.304871,177.333145 
	C145.710495,173.806488 148.577408,166.312302 156.699295,166.128204 
	C156.963791,165.337067 156.962494,165.116730 156.961212,164.896393 
	C157.730988,163.990433 158.500748,163.084457 159.920319,162.069092 
	C161.366760,161.021378 162.163391,160.083069 163.332672,159.141037 
	C164.148315,158.751221 164.591293,158.365128 165.019043,157.987152 
	C165.003799,157.995270 164.995453,158.027298 164.995453,158.027298 
z"/>
<path fill="#7F5290" opacity="1.000000" stroke="none" 
	d="
M44.932804,88.084061 
	C37.199474,80.939384 31.843950,72.502556 31.225487,61.079742 
	C35.372898,64.476654 39.520306,67.873573 44.053551,71.256638 
	C44.439388,71.242783 44.457142,71.268890 44.457142,71.268890 
	C44.566566,71.955803 44.675991,72.642723 44.538071,73.962868 
	C44.410782,76.208504 44.571552,77.819130 44.641972,79.433701 
	C44.767673,82.315903 44.838837,85.200478 44.932804,88.084061 
z"/>
<path fill="#805391" opacity="1.000000" stroke="none" 
	d="
M190.030457,113.797554 
	C190.033966,113.353989 190.037445,112.910431 190.059189,112.134613 
	C197.329895,105.480606 204.582352,99.158859 212.254288,92.471458 
	C211.539581,98.847504 209.495972,104.317162 205.014587,108.384163 
	C200.867355,112.147926 196.143814,115.276665 191.382019,118.441978 
	C190.736816,116.731789 190.383636,115.264671 190.030457,113.797554 
z"/>
<path fill="#7B4D8D" opacity="1.000000" stroke="none" 
	d="
M203.224930,76.025764 
	C203.370331,71.799820 210.430939,63.010540 214.410065,62.499458 
	C217.512085,62.101032 217.747238,64.416603 216.723480,66.342651 
	C213.570480,72.274429 210.205383,78.100388 206.718018,83.843170 
	C205.712311,85.499321 204.015396,86.735725 202.317352,87.959320 
	C201.867828,83.788200 206.721359,80.343269 203.224930,76.025764 
z"/>
<path fill="#7C4E8E" opacity="1.000000" stroke="none" 
	d="
M56.880878,119.118279 
	C49.179844,114.422333 41.546829,109.633446 38.176556,100.603416 
	C37.809261,99.619308 38.181229,98.359283 38.210300,97.227242 
	C39.397392,97.462532 40.958736,97.296959 41.710361,97.998688 
	C46.313702,102.296379 50.733608,106.790543 55.591415,111.147217 
	C55.968204,111.075165 55.913845,111.017365 55.740425,111.284485 
	C55.685047,111.728065 55.803097,111.904541 56.051121,112.394928 
	C56.648682,113.716370 57.116268,114.723907 57.452652,116.021393 
	C57.174591,117.246994 57.027733,118.182632 56.880878,119.118279 
z"/>
<path fill="#835793" opacity="1.000000" stroke="none" 
	d="
M42.327168,57.149704 
	C42.072369,57.901909 41.817570,58.654114 41.531113,59.499779 
	C33.436249,53.107918 30.022085,42.661968 33.566597,32.161278 
	C36.376671,39.328217 38.689705,45.227486 41.053661,51.885544 
	C41.512108,54.146122 41.919636,55.647915 42.327168,57.149704 
z"/>
<path fill="#805290" opacity="1.000000" stroke="none" 
	d="
M206.810822,51.910336 
	C209.021317,45.579239 211.231827,39.248142 213.442322,32.917046 
	C214.157791,33.039597 214.873276,33.162148 215.588745,33.284698 
	C215.588745,37.001373 216.304489,40.904381 215.398346,44.385162 
	C214.382065,48.289051 212.100372,51.936829 209.925873,55.419167 
	C209.310196,56.405125 207.143982,56.422882 205.688889,56.884682 
	C205.706818,56.161201 205.724762,55.437725 206.080780,54.229824 
	C206.549530,53.133713 206.680176,52.522026 206.810822,51.910336 
z"/>
<path fill="#865C96" opacity="1.000000" stroke="none" 
	d="
M204.948456,53.957958 
	C204.015106,53.772392 202.590637,53.910374 202.222885,53.352184 
	C197.567352,46.285545 193.063919,39.118698 189.209488,31.481575 
	C196.176758,34.028477 200.331451,38.896164 202.358322,45.790100 
	C202.913483,47.678352 204.141251,49.368855 205.037827,51.853497 
	C204.993011,53.023914 204.970734,53.490936 204.948456,53.957958 
z"/>
<path fill="#7F5290" opacity="1.000000" stroke="none" 
	d="
M56.468624,37.498520 
	C53.153011,42.753178 50.014248,47.686317 46.315052,53.500275 
	C44.134598,45.281185 48.345436,38.106655 58.295746,31.813543 
	C57.590656,34.105118 57.118065,35.641064 56.468624,37.498520 
z"/>
<path fill="#825693" opacity="1.000000" stroke="none" 
	d="
M79.689545,164.114059 
	C75.628700,161.036499 71.567856,157.958954 67.507011,154.881409 
	C67.992668,154.118637 68.478333,153.355865 68.963989,152.593094 
	C75.910576,156.169159 82.857170,159.745239 89.545944,163.653076 
	C86.088593,164.027924 82.889069,164.070999 79.689545,164.114059 
z"/>
<path fill="#825693" opacity="1.000000" stroke="none" 
	d="
M106.233780,174.891968 
	C107.822235,175.780930 109.416237,176.660126 110.998207,177.560486 
	C118.538223,181.851715 126.026741,186.541809 134.598602,179.674225 
	C135.042648,179.318497 135.997177,179.599960 136.845917,179.799866 
	C136.977798,180.014954 136.990921,180.045792 136.990921,180.045792 
	C133.643143,182.285828 130.418335,184.756927 126.880417,186.639694 
	C125.653671,187.292526 123.378708,186.984818 122.049187,186.259918 
	C116.418015,183.189667 110.962418,179.797379 105.358864,176.025604 
	C105.594643,175.316284 105.914207,175.104126 106.233780,174.891968 
z"/>
<path fill="#835793" opacity="1.000000" stroke="none" 
	d="
M106.037674,174.616531 
	C105.914207,175.104126 105.594643,175.316284 105.130280,175.780304 
	C96.715340,172.240204 88.445190,168.448212 79.932289,164.385132 
	C82.889069,164.070999 86.088593,164.027924 89.705215,163.973938 
	C92.898476,165.029892 95.974861,165.653915 98.372437,167.279266 
	C101.171555,169.176804 103.377991,171.948608 106.037674,174.616531 
z"/>
<path fill="#A485B0" opacity="1.000000" stroke="none" 
	d="
M57.067879,119.396935 
	C57.027733,118.182632 57.174591,117.246994 57.683266,116.108231 
	C58.774117,115.895462 59.503159,115.885818 60.232197,115.876175 
	C60.684296,114.899948 61.136395,113.923721 61.389420,113.377365 
	C62.201702,114.460274 63.115067,115.677933 64.381516,116.893562 
	C64.893875,120.321487 65.053146,123.751457 65.170509,126.278770 
	C62.790501,124.293381 60.022694,121.984482 57.067879,119.396935 
z"/>
<path fill="#B398BD" opacity="1.000000" stroke="none" 
	d="
M45.074287,88.385147 
	C44.838837,85.200478 44.767673,82.315903 44.641972,79.433701 
	C44.571552,77.819130 44.410782,76.208504 44.535545,74.311546 
	C45.992382,78.198486 47.204391,82.369972 48.705315,86.769745 
	C49.524902,87.767471 50.055573,88.536926 50.640362,89.384850 
	C50.934151,88.602066 51.201210,87.890488 51.468269,87.178917 
	C51.629192,87.184212 51.790119,87.189499 51.951042,87.194794 
	C51.820423,88.998657 51.689808,90.802521 51.239651,92.812088 
	C49.018665,91.573936 47.117218,90.130089 45.074287,88.385147 
z"/>
<path fill="#AF92B9" opacity="1.000000" stroke="none" 
	d="
M202.927338,76.259567 
	C206.721359,80.343269 201.867828,83.788200 202.033463,88.174057 
	C200.919357,89.996445 199.771103,91.398842 198.321259,92.910950 
	C195.298187,90.100357 198.620850,87.982018 199.128052,85.120239 
	C200.366806,82.007530 201.498291,79.250450 202.927338,76.259567 
z"/>
<path fill="#C0AAC9" opacity="1.000000" stroke="none" 
	d="
M181.999680,134.967728 
	C179.213043,137.325821 181.626465,142.339050 177.482056,143.879700 
	C176.898895,144.096481 175.852936,143.068283 175.086670,142.251129 
	C176.956955,139.166458 178.887299,136.519562 180.517868,133.699356 
	C181.446289,132.093628 181.884995,130.204758 183.335953,128.592911 
	C183.211914,129.872299 183.087860,131.151703 183.044632,132.787292 
	C183.125443,133.143478 183.049454,133.098907 182.776978,133.155548 
	C182.336227,133.797379 182.167953,134.382553 181.999680,134.967728 
z"/>
<path fill="#AF92B9" opacity="1.000000" stroke="none" 
	d="
M189.717316,113.827377 
	C190.383636,115.264671 190.736816,116.731789 191.051361,118.501022 
	C189.533249,120.113976 188.053741,121.424797 186.236435,122.790390 
	C186.140793,119.500412 186.382965,116.155655 186.639511,112.612152 
	C187.966156,113.209587 188.685165,113.533386 189.717316,113.827377 
z"/>
<path fill="#D2C3D8" opacity="1.000000" stroke="none" 
	d="
M42.671200,57.126030 
	C41.919636,55.647915 41.512108,54.146122 41.133038,52.257645 
	C41.517509,48.137318 41.873524,44.403675 42.495922,40.376457 
	C42.950466,40.041618 43.138630,40.000359 43.612450,39.915775 
	C43.643921,43.304813 43.190205,46.738476 43.212582,50.169033 
	C43.225403,52.135094 44.011581,54.096107 44.571018,56.603661 
	C44.692039,56.564869 43.853634,56.833614 42.671200,57.126030 
z"/>
<path fill="#CAB8D1" opacity="1.000000" stroke="none" 
	d="
M51.012405,94.224976 
	C51.528687,93.945755 51.974079,93.975914 52.754307,94.012688 
	C53.733978,97.142952 54.378807,100.266609 55.023640,103.390259 
	C54.679131,103.492683 54.334618,103.595116 53.990108,103.697540 
	C52.973911,100.643143 51.957710,97.588745 51.012405,94.224976 
z"/>
<path fill="#CAB8D1" opacity="1.000000" stroke="none" 
	d="
M60.188995,115.577957 
	C59.503159,115.885818 58.774117,115.895462 57.814468,115.818275 
	C57.116268,114.723907 56.648682,113.716370 56.251549,112.297394 
	C56.406975,111.765236 56.579029,111.552185 56.563736,111.537773 
	C56.362511,111.347969 56.134869,111.186172 55.913845,111.017365 
	C55.913845,111.017365 55.968204,111.075165 55.941063,111.103989 
	C55.989681,110.362198 56.065441,109.591576 56.141201,108.820946 
	C56.445538,108.540428 56.749870,108.259911 57.054207,107.979385 
	C57.222298,108.570923 57.390388,109.162460 57.834969,109.872414 
	C58.111458,109.990829 58.046600,110.006966 58.030029,110.354004 
	C58.513573,111.467430 59.013687,112.233818 59.513802,113.000198 
	C59.724468,113.760048 59.935135,114.519897 60.188995,115.577957 
z"/>
<path fill="#7D4E8E" opacity="1.000000" stroke="none" 
	d="
M74.952789,146.495850 
	C75.670204,145.784607 76.430130,145.396454 77.534454,145.006592 
	C77.988457,146.389069 78.098045,147.773254 78.207634,149.157425 
	C77.828819,149.278122 77.450005,149.398804 77.071198,149.519501 
	C76.379234,148.619308 75.687271,147.719131 74.952789,146.495850 
z"/>
<path fill="#835793" opacity="1.000000" stroke="none" 
	d="
M162.960022,159.144760 
	C162.163391,160.083069 161.366760,161.021378 160.194580,161.945068 
	C161.410873,160.542892 163.002716,159.155334 164.795013,157.897522 
	C164.995453,158.027298 165.003799,157.995270 164.648331,157.831879 
	C163.848587,158.160568 163.404297,158.652664 162.960022,159.144760 
z"/>
<path fill="#D2C3D8" opacity="1.000000" stroke="none" 
	d="
M205.164276,54.012753 
	C204.970734,53.490936 204.993011,53.023914 205.122101,52.222084 
	C205.580353,51.900246 205.931763,51.913216 206.546997,51.918259 
	C206.680176,52.522026 206.549530,53.133713 206.120148,53.876591 
	C205.821411,54.007782 205.380096,54.067547 205.164276,54.012753 
z"/>
<path fill="#B398BD" opacity="1.000000" stroke="none" 
	d="
M44.613037,70.924255 
	C44.457142,71.268890 44.439388,71.242783 44.435265,71.261482 
	C44.311188,70.174866 44.191235,69.069550 44.071281,67.964233 
	C44.303833,67.957710 44.536381,67.951187 44.768932,67.944672 
	C44.768932,68.822983 44.768932,69.701302 44.613037,70.924255 
z"/>
<path fill="#CAB8D1" opacity="1.000000" stroke="none" 
	d="
M55.352551,105.597961 
	C55.507889,105.814789 55.488110,106.177597 55.468330,106.540405 
	C55.371365,106.274918 55.274399,106.009438 55.352551,105.597961 
z"/>
<path fill="#7D4E8E" opacity="1.000000" stroke="none" 
	d="
M78.550636,151.390503 
	C78.580048,151.374847 78.521225,151.406143 78.550636,151.390503 
z"/>
<path fill="#835793" opacity="1.000000" stroke="none" 
	d="
M156.723724,165.002441 
	C156.962494,165.116730 156.963791,165.337067 156.940338,165.887741 
	C156.772461,165.848206 156.629349,165.478348 156.723724,165.002441 
z"/>
<path fill="#825693" opacity="1.000000" stroke="none" 
	d="
M136.967957,180.013672 
	C136.958115,180.012390 137.087265,180.203156 137.087265,180.203156 
	C137.087265,180.203156 137.096771,179.948273 137.043854,179.997040 
	C136.990921,180.045792 136.977798,180.014954 136.967957,180.013672 
z"/>
<path fill="#FC3133" opacity="1.000000" stroke="none" 
	d="
M122.180801,54.992134 
	C125.524925,55.659687 129.910309,53.030685 130.779709,58.154846 
	C131.295166,61.192860 130.874054,64.389778 130.874054,67.350098 
	C135.422348,68.140442 139.602951,68.336182 143.250717,69.831619 
	C144.313278,70.267212 144.100739,74.418350 144.050568,76.857674 
	C143.839645,87.114426 135.145416,79.376549 131.627579,82.983490 
	C130.942795,86.767410 130.684967,91.076172 129.147720,94.865959 
	C128.707001,95.952469 124.541046,95.914505 122.128014,95.746819 
	C112.191101,95.056267 119.781288,86.618347 115.155457,82.125259 
	C113.837410,82.125259 111.069229,82.021515 108.312202,82.152519 
	C105.138069,82.303329 103.594025,81.011856 103.870331,77.767899 
	C103.884407,77.602592 103.873650,77.434776 103.868553,77.268303 
	C103.593872,68.297127 103.593895,68.302505 112.652237,68.176712 
	C113.809570,68.160645 114.965637,68.053802 116.973083,67.941360 
	C116.973083,65.136650 117.079498,62.382927 116.946274,59.640846 
	C116.778023,56.177784 118.344994,54.700310 122.180801,54.992134 
z"/>
<path fill="#FEFDFE" opacity="1.000000" stroke="none" 
	d="
M59.402359,112.648605 
	C59.013687,112.233818 58.513573,111.467430 58.029251,110.320587 
	C58.460335,110.725754 58.875626,111.511375 59.402359,112.648605 
z"/>
<path fill="#FEFDFE" opacity="1.000000" stroke="none" 
	d="
M182.336426,134.837234 
	C182.167953,134.382553 182.336227,133.797379 182.800018,133.118011 
	C182.954742,133.584808 182.813950,134.145767 182.336426,134.837234 
z"/>
<path fill="#FEFDFE" opacity="1.000000" stroke="none" 
	d="
M163.332672,159.141037 
	C163.404297,158.652664 163.848587,158.160568 164.663574,157.823746 
	C164.591293,158.365128 164.148315,158.751221 163.332672,159.141037 
z"/>
<path fill="#FEFDFE" opacity="1.000000" stroke="none" 
	d="
M55.740425,111.284485 
	C56.134869,111.186172 56.362511,111.347969 56.563736,111.537773 
	C56.579029,111.552185 56.406975,111.765236 56.121574,111.983490 
	C55.803097,111.904541 55.685047,111.728065 55.740425,111.284485 
z"/>
</svg>